# xmcd
#
# Track frame offsets: 
#        150
#        16660
#        34252
#        40207
#        46145
#        63235
#        79672
#        95402
#        110667
#        118655
#        139530
#        151720
#        163722
#        176980
#        190342
#        200060
#        219557
#        232612
#        252805
#        269082
#
# Disc length: 3749 seconds
#
# Revision: 2
# Processed by: cddbd v1.5.2PL0 Copyright (c) Steve Scherf et al.
# Submitted via: ExactAudioCopy v0.99pb5
#
DISCID=0f0ea314
DTITLE=Louis Armstrong - The Collection
DYEAR=1900
DGENRE=Jazz
TTITLE0=Hello Dolly!
TTITLE1=Cabaret
TTITLE2=Tiger Rag
TTITLE3=When It's A Sleepy Time Down South
TTITLE4=Indiana
TTITLE5=Muskrat Ramble
TTITLE6=Mack The Knife
TTITLE7=Blueberry Hill
TTITLE8=St. James Infirmary
TTITLE9=A Kiss To Build A Dream On
TTITLE10=When The Saints Go Marchin' In
TTITLE11=Jeepers Creepers
TTITLE12=On The Sunny Side of the Street
TTITLE13=Ain't Misbehavin'
TTITLE14=Panama Rag
TTITLE15=Black and Blue
TTITLE16=Dear Old Southland
TTITLE17=Basin Street  Blues
TTITLE18=Lazy River
TTITLE19=Struttin' With Some Barbecue
EXTD=
EXTT0=
EXTT1=
EXTT2=
EXTT3=
EXTT4=
EXTT5=
EXTT6=
EXTT7=
EXTT8=
EXTT9=
EXTT10=
EXTT11=
EXTT12=
EXTT13=
EXTT14=
EXTT15=
EXTT16=
EXTT17=
EXTT18=
EXTT19=
PLAYORDER=
